<svg version="1.1" id="Capa_1" xmlns="http://www.w3.org/2000/svg" xmlns:xlink="http://www.w3.org/1999/xlink" x="0px" y="0px"
   viewBox="0 0 44 44" style="enable-background:new 0 0 44 44;" xml:space="preserve">
 <g>
  <title>Connection</title>
  <g stroke="null" id="svg_1">
   <path stroke="null" id="svg_2" fill="#2D3E59" d="m24.74618,19.50291c-1.61891,0 -3.04691,0.71618 -3.97982,1.81291l-8.65327,-4.10918c0.11327,-0.39236 0.19473,-0.79773 0.19473,-1.22436c0,-0.46445 -0.09673,-0.90173 -0.23164,-1.32718l8.61509,-4.09027c0.92782,1.14636 2.39273,1.89564 4.05618,1.89564c2.81782,0 5.09727,-2.11664 5.09727,-4.73082c0,-2.61182 -2.27946,-4.72964 -5.09727,-4.72964c-2.81145,0 -5.09345,2.11782 -5.09345,4.72964c0,0.42782 0.08146,0.83436 0.196,1.22791l-8.652,4.10918c-0.93418,-1.09791 -2.36473,-1.81645 -3.98618,-1.81645c-2.81527,0 -5.09345,2.119 -5.09345,4.732s2.27818,4.73082 5.09345,4.73082c1.666,0 3.12964,-0.75164 4.06127,-1.89918l8.61127,4.09027c-0.13491,0.42427 -0.23291,0.86509 -0.23291,1.33073c0,2.613 2.282,4.73082 5.09345,4.73082c2.81782,0 5.09727,-2.11782 5.09727,-4.73082c0.00127,-2.61536 -2.27818,-4.732 -5.096,-4.732z"/>
  </g>
 </g>
</svg>