<svg width="76" height="76" xmlns="http://www.w3.org/2000/svg">
 <g>
  <title>Layer 1</title>
  <path id="Down_Arrow" d="m55.900002,33l-16.900002,16.900002c-0.400002,0.399998 -0.900002,0.599998 -1.400002,0.599998s-1,-0.200001 -1.399998,-0.599998l-16.1,-16.100002c-0.800001,-0.799999 -0.800001,-2 0,-2.799999s2,-0.799999 2.799999,0l14.699999,14.700001l15.5,-15.5c0.800003,-0.800001 2,-0.800001 2.800003,0c0.799999,0.699999 0.799999,2 0,2.799999zm20.099998,5c0,21 -17,38 -38,38s-38,-17 -38,-38s17,-38 38,-38s38,17 38,38zm-4,0c0,-18.799999 -15.200001,-34 -34,-34s-34,15.200001 -34,34s15.200001,34 34,34s34,-15.200001 34,-34z" fill="#ffffff"/>
  <g id="svg_1"/>
  <g id="svg_2"/>
  <g id="svg_3"/>
  <g id="svg_4"/>
  <g id="svg_5"/>
  <g id="svg_6"/>
  <g id="svg_7"/>
  <g id="svg_8"/>
  <g id="svg_9"/>
  <g id="svg_10"/>
  <g id="svg_11"/>
  <g id="svg_12"/>
  <g id="svg_13"/>
  <g id="svg_14"/>
  <g id="svg_15"/>
 </g>
</svg>