<?xml version="1.0" encoding="UTF-8" standalone="no"?>
<!-- Created with Inkscape (http://www.inkscape.org/) -->

<svg
   xmlns:dc="http://purl.org/dc/elements/1.1/"
   xmlns:cc="http://creativecommons.org/ns#"
   xmlns:rdf="http://www.w3.org/1999/02/22-rdf-syntax-ns#"
   xmlns:svg="http://www.w3.org/2000/svg"
   xmlns="http://www.w3.org/2000/svg"
   xmlns:sodipodi="http://sodipodi.sourceforge.net/DTD/sodipodi-0.dtd"
   xmlns:inkscape="http://www.inkscape.org/namespaces/inkscape"
   width="48"
   height="48"
   viewBox="0 0 48 48.000001"
   id="svg16122"
   version="1.1"
   inkscape:version="0.91 r13725"
   sodipodi:docname="Projects.svg">
  <defs
     id="defs16124" />
  <sodipodi:namedview
     id="base"
     pagecolor="#ffffff"
     bordercolor="#666666"
     borderopacity="1.0"
     inkscape:pageopacity="0.0"
     inkscape:pageshadow="2"
     inkscape:zoom="8.1491494"
     inkscape:cx="20.362603"
     inkscape:cy="28.669367"
     inkscape:document-units="px"
     inkscape:current-layer="layer1"
     showgrid="true"
     units="px"
     inkscape:window-width="1064"
     inkscape:window-height="558"
     inkscape:window-x="-8"
     inkscape:window-y="-8"
     inkscape:window-maximized="1">
    <inkscape:grid
       type="xygrid"
       id="grid16436" />
  </sodipodi:namedview>
  <metadata
     id="metadata16127">
    <rdf:RDF>
      <cc:Work
         rdf:about="">
        <dc:format>image/svg+xml</dc:format>
        <dc:type
           rdf:resource="http://purl.org/dc/dcmitype/StillImage" />
        <dc:title></dc:title>
      </cc:Work>
    </rdf:RDF>
  </metadata>
  <g
     inkscape:label="Layer 1"
     inkscape:groupmode="layer"
     id="layer1"
     transform="translate(0,-1004.3622)">
    <g
       id="g16334"
       transform="matrix(0.19477129,0,0,0.19477129,180.49585,985.33067)">
      <g
         id="g13060"
         transform="matrix(0.9439659,0,0,-0.90818594,-693.12677,238.58391)">
        <path
           d="m 0,0 c 0,-64.2 -52.044,-116.244 -116.244,-116.244 -64.2,0 -116.244,52.044 -116.244,116.244 0,64.2 52.044,116.244 116.244,116.244 C -52.044,116.244 0,64.2 0,0"
           style="fill:#fc611f;fill-opacity:1;fill-rule:nonzero;stroke:none"
           id="path13062"
           inkscape:connector-curvature="0" />
      </g>
      <g
         id="g13064"
         transform="matrix(0.9439659,0,0,-0.90818594,-780.08132,188.65139)">
        <path
           d="m 0,0 c -0.632,-1.264 -1.847,-1.937 -2.736,-1.538 -13.973,6.28 -29.972,6.28 -43.942,0 -0.889,-0.399 -2.108,0.274 -2.735,1.538 -0.047,0.097 -0.094,0.192 -0.141,0.287 -0.632,1.266 -0.347,2.684 0.649,3.132 15.389,6.915 33.006,6.915 48.396,0 C 0.485,2.973 0.769,1.553 0.14,0.287 0.093,0.192 0.046,0.097 0,0"
           style="fill:#0e303f;fill-opacity:1;fill-rule:nonzero;stroke:none"
           id="path13066"
           inkscape:connector-curvature="0" />
      </g>
      <g
         id="g13068"
         transform="matrix(0.9439659,0,0,-0.90818594,-780.56161,185.54594)">
        <path
           d="m 0,0 c -15.387,6.915 -33.007,6.915 -48.396,0 -0.997,-0.447 -1.281,-1.866 -0.649,-3.132 15.673,7.678 34.019,7.678 49.693,0 C 1.277,-1.866 0.993,-0.449 0,0"
           style="fill:#2c5871;fill-opacity:1;fill-rule:nonzero;stroke:none"
           id="path13070"
           inkscape:connector-curvature="0" />
      </g>
      <g
         id="g13072"
         transform="matrix(0.9439659,0,0,-0.90818594,-821.93658,201.90174)">
        <path
           d="m 0,0 c 0,-0.937 -0.756,-1.694 -1.692,-1.694 l -0.28,0 c -0.934,0 -1.69,0.757 -1.69,1.694 l 0,14.38 c 0,0.936 0.756,1.693 1.69,1.693 l 0.28,0 C -0.756,16.073 0,15.316 0,14.38 L 0,0 Z"
           style="fill:#fec00f;fill-opacity:1;fill-rule:nonzero;stroke:none"
           id="path13074"
           inkscape:connector-curvature="0" />
      </g>
      <g
         id="g13076"
         transform="matrix(0.9439659,0,0,-0.90818594,-819.80718,196.13911)">
        <path
           d="m 0,0 c 0,-2.259 -1.828,-4.088 -4.092,-4.088 -2.255,0 -4.088,1.829 -4.088,4.088 0,2.257 1.833,4.087 4.088,4.087 C -1.828,4.087 0,2.257 0,0"
           style="fill:#fec00f;fill-opacity:1;fill-rule:nonzero;stroke:none"
           id="path13078"
           inkscape:connector-curvature="0" />
      </g>
      <g
         id="g13080"
         transform="matrix(0.9439659,0,0,-0.90818594,-781.40967,201.90174)">
        <path
           d="m 0,0 c 0,-0.937 -0.759,-1.694 -1.69,-1.694 l -0.285,0 c -0.931,0 -1.688,0.757 -1.688,1.694 l 0,14.38 c 0,0.936 0.757,1.693 1.688,1.693 l 0.285,0 C -0.759,16.073 0,15.316 0,14.38 L 0,0 Z"
           style="fill:#fec00f;fill-opacity:1;fill-rule:nonzero;stroke:none"
           id="path13082"
           inkscape:connector-curvature="0" />
      </g>
      <g
         id="g13084"
         transform="matrix(0.9439659,0,0,-0.90818594,-779.27838,196.13911)">
        <path
           d="m 0,0 c 0,-2.259 -1.83,-4.088 -4.09,-4.088 -2.261,0 -4.089,1.829 -4.089,4.088 0,2.257 1.828,4.087 4.089,4.087 C -1.83,4.087 0,2.257 0,0"
           style="fill:#fec00f;fill-opacity:1;fill-rule:nonzero;stroke:none"
           id="path13086"
           inkscape:connector-curvature="0" />
      </g>
      <g
         id="g13088"
         transform="matrix(0.9439659,0,0,-0.90818594,-730.47147,285.64683)">
        <path
           d="m 0,0 c 0,-2.803 -2.274,-5.077 -5.077,-5.077 l -144.37,0 c -2.805,0 -5.075,2.274 -5.075,5.077 l 0,93.618 c 0,2.803 2.27,5.076 5.075,5.076 l 144.37,0 C -2.274,98.694 0,96.421 0,93.618 L 0,0 Z"
           style="fill:#0e303f;fill-opacity:1;fill-rule:nonzero;stroke:none"
           id="path13090"
           inkscape:connector-curvature="0" />
      </g>
      <g
         id="g13092"
         transform="matrix(0.9439659,0,0,-0.90818594,-730.47147,231.86788)">
        <path
           d="m 0,0 c 0,-2.789 -2.233,-5.641 -5.004,-6.317 -47.502,-11.361 -97.015,-11.361 -144.517,0 -2.767,0.676 -5.006,3.528 -5.001,6.317 l 0,34.402 c -0.005,2.785 2.262,5.059 5.075,5.077 l 144.37,0 C -2.271,39.461 0,37.187 0,34.402 L 0,0 Z"
           style="fill:#2c5871;fill-opacity:1;fill-rule:nonzero;stroke:none"
           id="path13094"
           inkscape:connector-curvature="0" />
      </g>
      <g
         id="g13096"
         transform="matrix(0.9439659,0,0,-0.90818594,-803.40388,242.26987)">
        <path
           d="m 0,0 c -24.046,0 -48.092,2.837 -71.474,8.427 -1.226,0.3 -2.406,1.771 -2.406,3.024 l 0,34.404 c 0,0.93 0.768,1.687 1.707,1.69 l 144.358,0 c 0.927,-0.003 1.696,-0.763 1.696,-1.692 l 0,-34.399 c 0,-1.256 -1.18,-2.728 -2.425,-3.031 C 48.089,2.837 24.044,0 0,0"
           style="fill:#0e303f;fill-opacity:1;fill-rule:nonzero;stroke:none"
           id="path13098"
           inkscape:connector-curvature="0" />
      </g>
      <g
         id="g13100"
         transform="matrix(0.9439659,0,0,-0.90818594,-803.40388,237.66156)">
        <path
           d="m 0,0 c -22.838,0 -45.689,2.533 -68.397,7.528 -1.198,0.268 -2.409,1.582 -2.486,2.7 -0.691,10.245 -1.38,20.49 -2.069,30.734 -0.061,0.828 0.654,1.506 1.59,1.509 l 142.747,0 C 72.3,42.468 73.009,41.79 72.951,40.962 72.262,30.716 71.571,20.473 70.879,10.228 70.807,9.113 69.59,7.794 68.38,7.524 45.694,2.533 22.838,0 0,0"
           style="fill:#2c5871;fill-opacity:1;fill-rule:nonzero;stroke:none"
           id="path13102"
           inkscape:connector-curvature="0" />
      </g>
      <g
         id="g13104"
         transform="matrix(0.9439659,0,0,-0.90818594,-812.72007,195.75641)">
        <path
           d="m 0,0 0,-45.009 c 0,-2.242 0.757,-4.064 1.688,-4.064 l 16.362,0 c 0.929,0 1.688,1.822 1.688,4.064 L 19.738,0 0,0 Z"
           style="fill:#0e303f;fill-opacity:1;fill-rule:nonzero;stroke:none"
           id="path13106"
           inkscape:connector-curvature="0" />
      </g>
      <g
         id="g13108"
         transform="matrix(0.9439659,0,0,-0.90818594,-810.45503,195.75641)">
        <path
           d="m 0,0 0,-45.009 c 0,-2.242 0.086,-4.064 0.188,-4.064 l 1.873,0 c 0.103,0 0.193,1.822 0.193,4.064 L 2.254,0 0,0 Z"
           style="fill:#2c5871;fill-opacity:1;fill-rule:nonzero;stroke:none"
           id="path13110"
           inkscape:connector-curvature="0" />
      </g>
      <g
         id="g13112"
         transform="matrix(0.9439659,0,0,-0.90818594,-798.47761,195.75641)">
        <path
           d="m 0,0 0,-45.009 c 0,-2.242 0.087,-4.064 0.189,-4.064 l 1.873,0 c 0.105,0 0.194,1.822 0.194,4.064 L 2.256,0 0,0 Z"
           style="fill:#2c5871;fill-opacity:1;fill-rule:nonzero;stroke:none"
           id="path13114"
           inkscape:connector-curvature="0" />
      </g>
      <g
         id="g13116"
         transform="matrix(0.9439659,0,0,-0.90818594,-795.15154,254.91882)">
        <path
           d="m 0,0 c -0.004,-0.818 -0.651,-1.743 -1.458,-1.999 -4.748,-1.463 -9.82,-1.463 -14.568,0 -0.815,0.256 -1.461,1.181 -1.458,1.999 l 0,17.482 c 0,0.817 0.647,1.74 1.458,1.998 4.748,1.461 9.82,1.461 14.568,0 C -0.647,19.222 -0.004,18.299 0,17.482 L 0,0 Z"
           style="fill:#fec00f;fill-opacity:1;fill-rule:nonzero;stroke:none"
           id="path13118"
           inkscape:connector-curvature="0" />
      </g>
      <g
         id="g13120"
         transform="matrix(0.9439659,0,0,-0.90818594,-796.52785,237.76618)">
        <path
           d="m 0,0 c -4.748,1.377 -9.82,1.377 -14.568,0 -0.811,-0.24 -1.458,-1.111 -1.458,-1.879 l 0,-7.616 c 0.052,-0.005 0.105,-0.026 0.16,-0.026 l 17.324,0 0,7.642 C 1.454,-1.111 0.811,-0.24 0,0"
           style="fill:#f99b1c;fill-opacity:1;fill-rule:nonzero;stroke:none"
           id="path13122"
           inkscape:connector-curvature="0" />
      </g>
      <g
         id="g13124"
         transform="matrix(0.9439659,0,0,-0.90818594,-811.65622,247.88346)">
        <path
           d="m 0,0 0,-7.747 c -0.003,-0.817 0.644,-1.742 1.458,-1.999 4.748,-1.462 9.82,-1.462 14.568,0 0.807,0.257 1.454,1.182 1.458,1.999 L 17.484,0 0,0 Z"
           style="fill:#f99b1c;fill-opacity:1;fill-rule:nonzero;stroke:none"
           id="path13126"
           inkscape:connector-curvature="0" />
      </g>
      <g
         id="g13128"
         transform="matrix(0.9439659,0,0,-0.90818594,-803.40388,256.3711)">
        <path
           d="m 0,0 c -2.318,0 -4.62,0.35 -6.843,1.031 -0.175,0.056 -0.401,0.396 -0.401,0.563 l 0,6.251 14.486,0 0,-6.246 C 7.242,1.416 7.001,1.084 6.825,1.027 4.622,0.35 2.321,0 0,0"
           style="fill:#fec00f;fill-opacity:1;fill-rule:nonzero;stroke:none"
           id="path13130"
           inkscape:connector-curvature="0" />
      </g>
      <g
         id="g13132"
         transform="matrix(0.9439659,0,0,-0.90818594,-795.26869,173.88983)">
        <path
           d="m 0,0 8.603,-0.001 0,-13.858 c 0,-1.103 -0.421,-2.199 -1.256,-3.041 C 6.504,-17.738 5.401,-18.162 4.3,-18.161 3.203,-18.162 2.1,-17.738 1.259,-16.9 0.417,-16.058 -0.003,-14.961 0,-13.859 L 0,0 Z"
           style="fill:#ffccbb;fill-opacity:1;fill-rule:nonzero;stroke:none"
           id="path13134"
           inkscape:connector-curvature="0" />
      </g>
      <g
         id="g13136"
         transform="matrix(0.9439659,0,0,-0.90818594,-803.79384,173.89119)">
        <path
           d="m 0,0 8.599,0 0,-13.858 c 0,-1.099 -0.421,-2.2 -1.256,-3.041 -0.844,-0.84 -1.946,-1.26 -3.049,-1.262 -1.098,0 -2.201,0.423 -3.043,1.261 -0.834,0.844 -1.257,1.943 -1.251,3.042 L 0,0 Z"
           style="fill:#ffccbb;fill-opacity:1;fill-rule:nonzero;stroke:none"
           id="path13138"
           inkscape:connector-curvature="0" />
      </g>
      <g
         id="g13140"
         transform="matrix(0.9439659,0,0,-0.90818594,-812.32644,173.88983)">
        <path
           d="M 0,0 8.606,0 8.604,-13.862 c 0.002,-1.099 -0.419,-2.2 -1.265,-3.041 -0.836,-0.838 -1.941,-1.259 -3.041,-1.259 -1.098,0 -2.194,0.421 -3.042,1.259 -0.843,0.841 -1.254,1.941 -1.256,3.041 L 0,0 Z"
           style="fill:#ffccbb;fill-opacity:1;fill-rule:nonzero;stroke:none"
           id="path13142"
           inkscape:connector-curvature="0" />
      </g>
      <g
         id="g13144"
         transform="matrix(0.9439659,0,0,-0.90818594,-820.85253,173.88983)">
        <path
           d="m 0,0 8.603,-0.001 0,-11.681 c 0,-1.099 -0.42,-2.204 -1.266,-3.041 -0.832,-0.844 -1.936,-1.265 -3.039,-1.265 -1.102,0 -2.2,0.421 -3.041,1.265 -0.843,0.837 -1.257,1.942 -1.254,3.042 L 0,0 Z"
           style="fill:#ffccbb;fill-opacity:1;fill-rule:nonzero;stroke:none"
           id="path13146"
           inkscape:connector-curvature="0" />
      </g>
      <g
         id="g13148"
         transform="matrix(0.9439659,0,0,-0.90818594,-814.82833,143.88863)">
        <path
           d="M 0,0 26.479,0 26.48,-10.607 0,-10.605 0,0 Z"
           style="fill:#ffccbb;fill-opacity:1;fill-rule:nonzero;stroke:none"
           id="path13150"
           inkscape:connector-curvature="0" />
      </g>
      <g
         id="g13152"
         transform="matrix(0.9439659,0,0,-0.90818594,-787.14813,152.44593)">
        <path
           d="m 0,0 0,-23.815 -35.708,0 0,17.313 c 0,1.285 0.201,2.6 0.621,3.885 0.419,1.288 1.025,2.457 1.777,3.498 l 3.99,5.49 22.948,0 L 0,0 Z"
           style="fill:#ffccbb;fill-opacity:1;fill-rule:nonzero;stroke:none"
           id="path13154"
           inkscape:connector-curvature="0" />
      </g>
      <g
         id="g13156"
         transform="matrix(0.9439659,0,0,-0.90818594,-777.99515,163.3566)">
        <path
           d="m 0,0 c 0,0.732 -0.139,1.421 -0.437,2.14 -0.297,0.718 -0.725,1.341 -1.242,1.858 l -14.389,14.388 -6.078,-6.077 13.55,-13.55 -10e-4,-7.876 c 0,-1.651 0.63,-3.303 1.89,-4.562 1.259,-1.26 2.911,-1.89 4.562,-1.89 l 0.718,0 c 0.368,0 0.736,0.14 1.016,0.42 0.28,0.28 0.419,0.835 0.419,1.201 L 0,0 Z"
           style="fill:#ffccbb;fill-opacity:1;fill-rule:nonzero;stroke:none"
           id="path13158"
           inkscape:connector-curvature="0" />
      </g>
      <g
         id="g13160"
         transform="matrix(0.9439659,0,0,-0.90818594,-818.54425,137.98543)">
        <path
           d="m 0,0 33.765,0 0.005,-6.498 -33.774,0 L 0,0 Z"
           style="fill:#e1effa;fill-opacity:1;fill-rule:nonzero;stroke:none"
           id="path13162"
           inkscape:connector-curvature="0" />
      </g>
      <g
         id="g13164"
         transform="matrix(0.9439659,0,0,-0.90818594,-820.84885,97.71219)">
        <path
           d="m 0,0 38.66,-0.001 -0.003,-44.344 -38.658,0 L 0,0 Z"
           style="fill:#087187;fill-opacity:1;fill-rule:nonzero;stroke:none"
           id="path13166"
           inkscape:connector-curvature="0" />
      </g>
      <g
         id="g13168"
         transform="matrix(0.9439659,0,0,-0.90818594,-816.41938,132.47692)">
        <path
           d="m 0,0 c 0,0.75 0.613,1.361 1.363,1.361 0.756,0 1.365,-0.612 1.365,-1.362 C 2.726,-0.753 2.119,-1.36 1.363,-1.36 0.613,-1.36 0,-0.755 0,0"
           style="fill:#50a6d5;fill-opacity:1;fill-rule:nonzero;stroke:none"
           id="path13170"
           inkscape:connector-curvature="0" />
      </g>
      <g
         id="g13172"
         transform="matrix(0.9439659,0,0,-0.90818594,-844.62593,305.30588)">
        <path
           d="m 0,0 c 0,-1.498 -1.214,-2.713 -2.714,-2.713 l -54.994,0 c -1.497,0 -2.713,1.215 -2.713,2.713 l 0,70.913 c 0,1.5 1.216,2.715 2.713,2.715 l 54.994,0 C -1.214,73.628 0,72.413 0,70.913 L 0,0 Z"
           style="fill:#1695a4;fill-opacity:1;fill-rule:nonzero;stroke:none"
           id="path13174"
           inkscape:connector-curvature="0" />
      </g>
      <g
         id="g13176"
         transform="matrix(0.9439659,0,0,-0.90818594,-844.62593,303.44955)">
        <path
           d="m 0,0 c 0,-1.5 -1.214,-2.713 -2.714,-2.713 l -54.994,0 c -1.497,0 -2.713,1.213 -2.713,2.713 l 0,70.913 c 0,1.498 1.216,2.713 2.713,2.713 l 54.994,0 C -1.214,73.626 0,72.411 0,70.913 L 0,0 Z"
           style="fill:#15b0bf;fill-opacity:1;fill-rule:nonzero;stroke:none"
           id="path13178"
           inkscape:connector-curvature="0" />
      </g>
      <path
         d="m -897.04955,241.01867 47.81282,0 0,60.45975 -47.81282,0 0,-60.45975 z"
         style="fill:#ffffff;fill-opacity:1;fill-rule:nonzero;stroke:none"
         id="path13180"
         inkscape:connector-curvature="0" />
      <path
         d="m -897.04955,299.50584 47.81282,0 0,1.97258 -47.81282,0 0,-1.97258 z"
         style="fill:#d1ecfb;fill-opacity:1;fill-rule:nonzero;stroke:none"
         id="path13182"
         inkscape:connector-curvature="0" />
      <g
         id="g13184"
         transform="matrix(0.9439659,0,0,-0.90818594,-862.04314,244.22683)">
        <path
           d="m 0,0 0,2.714 c 0,0.902 -0.729,1.63 -1.627,1.63 l -20.264,0 c -0.898,0 -1.625,-0.728 -1.625,-1.63 L -23.516,0 0,0 Z"
           style="fill:#f99b1c;fill-opacity:1;fill-rule:nonzero;stroke:none"
           id="path13186"
           inkscape:connector-curvature="0" />
      </g>
      <g
         id="g13188"
         transform="matrix(0.9439659,0,0,-0.90818594,-862.04314,243.15363)">
        <path
           d="m 0,0 0,2.713 c 0,0.9 -0.729,1.629 -1.627,1.629 l -20.264,0 c -0.898,0 -1.625,-0.729 -1.625,-1.629 L -23.516,0 0,0 Z"
           style="fill:#fec00f;fill-opacity:1;fill-rule:nonzero;stroke:none"
           id="path13190"
           inkscape:connector-curvature="0" />
      </g>
      <g
         id="g13192"
         transform="matrix(0.9439659,0,0,-0.90818594,-869.55711,239.04736)">
        <path
           d="m 0,0 c 0,-2.098 -1.701,-3.799 -3.8,-3.799 -2.097,0 -3.799,1.701 -3.799,3.799 0,2.099 1.702,3.799 3.799,3.799 C -1.701,3.799 0,2.099 0,0"
           style="fill:#fec00f;fill-opacity:1;fill-rule:nonzero;stroke:none"
           id="path13194"
           inkscape:connector-curvature="0" />
      </g>
      <g
         id="g13196"
         transform="matrix(0.9439659,0,0,-0.90818594,-871.60816,239.04736)">
        <path
           d="m 0,0 c 0,-0.899 -0.726,-1.628 -1.627,-1.628 -0.897,0 -1.626,0.729 -1.626,1.628 0,0.899 0.729,1.628 1.626,1.628 C -0.726,1.628 0,0.899 0,0"
           style="fill:#2c5871;fill-opacity:1;fill-rule:nonzero;stroke:none"
           id="path13198"
           inkscape:connector-curvature="0" />
      </g>
      <path
         d="m -855.67363,258.69197 -29.80195,0 0,-1.50759 29.80195,0 0,1.50759 z"
         style="fill:#a6dae9;fill-opacity:1;fill-rule:nonzero;stroke:none"
         id="path13200"
         inkscape:connector-curvature="0" />
      <path
         d="m -855.67363,264.87853 -29.80195,0 0,-1.50487 29.80195,0 0,1.50487 z"
         style="fill:#a6dae9;fill-opacity:1;fill-rule:nonzero;stroke:none"
         id="path13202"
         inkscape:connector-curvature="0" />
      <path
         d="m -855.67363,271.06872 -29.80195,0 0,-1.50668 29.80195,0 0,1.50668 z"
         style="fill:#a6dae9;fill-opacity:1;fill-rule:nonzero;stroke:none"
         id="path13204"
         inkscape:connector-curvature="0" />
      <path
         d="m -855.67363,277.25529 -29.80195,0 0,-1.50759 29.80195,0 0,1.50759 z"
         style="fill:#a6dae9;fill-opacity:1;fill-rule:nonzero;stroke:none"
         id="path13206"
         inkscape:connector-curvature="0" />
      <g
         id="g13208"
         transform="matrix(0.9439659,0,0,-0.90818594,-891.00099,259.71077)">
        <path
           d="M 0,0 C -0.207,0 -0.405,0.084 -0.549,0.234 L -1.794,1.54 C -2.083,1.843 -2.071,2.323 -1.769,2.612 -1.465,2.9 -0.985,2.89 -0.696,2.587 L -0.043,1.901 2.159,4.586 C 2.425,4.909 2.901,4.958 3.227,4.691 3.55,4.426 3.597,3.948 3.331,3.625 L 0.586,0.277 C 0.449,0.109 0.245,0.008 0.029,0.001 0.02,0 0.01,0 0,0"
           style="fill:#15b0bf;fill-opacity:1;fill-rule:nonzero;stroke:none"
           id="path13210"
           inkscape:connector-curvature="0" />
      </g>
      <g
         id="g13212"
         transform="matrix(0.9439659,0,0,-0.90818594,-891.00099,265.65739)">
        <path
           d="m 0,0 c -0.207,0 -0.406,0.085 -0.549,0.236 l -1.245,1.306 c -0.289,0.303 -0.277,0.783 0.026,1.071 0.304,0.29 0.783,0.278 1.072,-0.025 L -0.043,1.903 2.158,4.59 C 2.424,4.914 2.901,4.958 3.227,4.696 3.55,4.431 3.597,3.953 3.332,3.628 L 0.587,0.278 C 0.449,0.109 0.245,0.009 0.029,0.001 0.02,0 0.01,0 0,0"
           style="fill:#15b0bf;fill-opacity:1;fill-rule:nonzero;stroke:none"
           id="path13214"
           inkscape:connector-curvature="0" />
      </g>
      <g
         id="g13216"
         transform="matrix(0.9439659,0,0,-0.90818594,-891.00099,271.60147)">
        <path
           d="M 0,0 C -0.207,0 -0.405,0.084 -0.549,0.234 L -1.794,1.54 c -0.289,0.303 -0.277,0.783 0.025,1.072 0.304,0.289 0.784,0.276 1.073,-0.025 L -0.043,1.901 2.159,4.586 C 2.425,4.91 2.901,4.958 3.227,4.691 3.55,4.426 3.597,3.948 3.331,3.625 L 0.586,0.277 C 0.449,0.109 0.245,0.008 0.029,0.001 0.02,0 0.01,0 0,0"
           style="fill:#15b0bf;fill-opacity:1;fill-rule:nonzero;stroke:none"
           id="path13218"
           inkscape:connector-curvature="0" />
      </g>
      <g
         id="g13220"
         transform="matrix(0.9439659,0,0,-0.90818594,-865.74622,290.62369)">
        <path
           d="M 0,0 C -0.306,-0.274 -0.509,-0.533 -0.549,-0.736 -0.558,-0.775 -0.578,-0.876 -0.225,-0.977 0.014,-1.047 0.12,-1.019 0.137,-0.998 0.211,-0.898 0.204,-0.538 0,0 m -6.406,0.516 c -0.238,-0.738 -0.258,-1.542 -0.041,-2.302 0.007,-0.022 0.011,-0.042 0.018,-0.061 0.105,0.509 0.154,1.391 0.023,2.363 m -0.007,-3.564 c -0.036,0 -0.068,0.003 -0.092,0.007 -0.431,0.073 -0.629,0.585 -0.755,1.023 -0.373,1.313 -0.165,2.736 0.557,3.883 -0.124,0.39 -0.285,0.775 -0.488,1.137 -0.115,0.203 -0.042,0.461 0.161,0.576 0.2,0.113 0.459,0.042 0.575,-0.162 0.139,-0.248 0.261,-0.506 0.368,-0.771 0.771,0.778 1.787,1.214 2.863,1.214 1.391,0 2.687,-1.255 3.436,-2.431 C 0.241,1.382 0.27,1.336 0.299,1.289 1.597,2.158 3.325,2.823 4.271,2.708 5.512,2.561 5.65,1.375 5.662,0.605 5.996,1.062 6.109,1.391 6.194,1.637 6.514,2.559 6.832,2.497 8.91,2.098 L 9.343,2.014 C 9.571,1.97 9.722,1.75 9.678,1.521 9.635,1.292 9.417,1.139 9.184,1.185 L 8.75,1.269 c -0.915,0.175 -1.573,0.3 -1.727,0.26 l 0.004,0 C 7.052,1.529 7.02,1.437 6.994,1.362 6.888,1.056 6.729,0.595 6.233,-0.039 5.895,-0.47 5.593,-0.825 5.195,-0.685 4.812,-0.552 4.814,-0.144 4.817,0.329 4.824,1.299 4.726,1.804 4.171,1.871 3.323,1.971 1.783,1.281 0.69,0.536 1.028,-0.232 1.172,-1.023 0.813,-1.503 0.663,-1.704 0.303,-2.01 -0.458,-1.79 c -1.022,0.294 -0.962,1.009 -0.919,1.221 0.085,0.427 0.464,0.9 0.995,1.349 -0.037,0.063 -0.077,0.129 -0.119,0.195 -0.599,0.941 -1.672,2.04 -2.723,2.04 -1.005,0 -1.913,-0.462 -2.558,-1.302 0.497,-1.893 0.317,-3.861 -0.103,-4.459 C -6.063,-3 -6.275,-3.048 -6.413,-3.048"
           style="fill:#15b0bf;fill-opacity:1;fill-rule:nonzero;stroke:none"
           id="path13222"
           inkscape:connector-curvature="0" />
      </g>
      <g
         id="g13224"
         transform="matrix(0.9439659,0,0,-0.90818594,-699.94192,320.38231)">
        <path
           d="m 0,0 c -0.249,0 -0.502,0.057 -0.73,0.187 l -12.991,6.978 c -2.497,1.344 -5.159,2.375 -7.907,3.067 -2.751,0.696 -5.585,1.044 -8.422,1.044 l -57.092,0 0,3.097 57.092,0 c 3.092,0 6.178,-0.386 9.177,-1.139 2.993,-0.755 5.894,-1.88 8.617,-3.346 L 0.733,2.91 C 1.487,2.506 1.767,1.566 1.363,0.815 1.085,0.295 0.552,0 0,0"
           style="fill:#50667e;fill-opacity:1;fill-rule:nonzero;stroke:none"
           id="path13226"
           inkscape:connector-curvature="0" />
      </g>
      <g
         id="g13228"
         transform="matrix(0.9439659,0,0,-0.90818594,-783.74098,320.38231)">
        <path
           d="m 0,0 c 0.245,0 0.498,0.057 0.731,0.187 l 12.987,6.978 c 2.497,1.344 5.158,2.375 7.906,3.067 2.751,0.696 5.584,1.044 8.421,1.044 l 57.095,0 0,3.097 -57.095,0 c -3.093,0 -6.179,-0.386 -9.174,-1.139 -2.997,-0.755 -5.892,-1.88 -8.619,-3.346 L -0.737,2.91 C -1.488,2.506 -1.771,1.566 -1.367,0.815 -1.086,0.295 -0.552,0 0,0"
           style="fill:#50667e;fill-opacity:1;fill-rule:nonzero;stroke:none"
           id="path13230"
           inkscape:connector-curvature="0" />
      </g>
      <g
         id="g13232"
         transform="matrix(0.9439659,0,0,-0.90818594,-745.68188,309.56745)">
        <path
           d="M 0,0 0,0 C 0,2.244 1.824,4.065 4.064,4.065 6.311,4.065 8.137,2.244 8.137,0 l 3.092,0 c 0,3.957 -3.205,7.162 -7.165,7.162 -3.953,0 -7.16,-3.205 -7.16,-7.162 L 0,0 Z"
           style="fill:#20364d;fill-opacity:1;fill-rule:nonzero;stroke:none"
           id="path13234"
           inkscape:connector-curvature="0" />
      </g>
      <g
         id="g13236"
         transform="matrix(0.9439659,0,0,-0.90818594,-748.60411,313.96552)">
        <path
           d="m 0,0 c 0,-3.26 -2.667,-5.928 -5.926,-5.928 l -20.645,0 c -3.259,0 -5.925,2.668 -5.925,5.928 l 0,11.129 c 0,3.259 2.666,5.926 5.925,5.926 l 20.645,0 C -2.667,17.055 0,14.388 0,11.129 L 0,0 Z"
           style="fill:#e1effa;fill-opacity:1;fill-rule:nonzero;stroke:none"
           id="path13238"
           inkscape:connector-curvature="0" />
      </g>
      <g
         id="g13240"
         transform="matrix(0.9439659,0,0,-0.90818594,-754.19787,298.47632)">
        <path
           d="m 0,0 -11.358,0 0,-22.983 11.358,0 c 3.259,0 5.926,2.668 5.926,5.928 l 0,11.129 C 5.926,-2.667 3.259,0 0,0"
           style="fill:#cee2f2;fill-opacity:1;fill-rule:nonzero;stroke:none"
           id="path13242"
           inkscape:connector-curvature="0" />
      </g>
      <g
         id="g13244"
         transform="matrix(0.9439659,0,0,-0.90818594,-704.49212,313.96552)">
        <path
           d="m 0,0 c 0,-3.26 -2.666,-5.928 -5.926,-5.928 l -20.645,0 c -3.26,0 -5.926,2.668 -5.926,5.928 l 0,11.129 c 0,3.259 2.666,5.926 5.926,5.926 l 20.645,0 C -2.666,17.055 0,14.388 0,11.129 L 0,0 Z"
           style="fill:#e1effa;fill-opacity:1;fill-rule:nonzero;stroke:none"
           id="path13246"
           inkscape:connector-curvature="0" />
      </g>
      <g
         id="g13248"
         transform="matrix(0.9439659,0,0,-0.90818594,-710.08587,298.47632)">
        <path
           d="m 0,0 -11.358,0 0,-22.983 11.358,0 c 3.26,0 5.926,2.668 5.926,5.928 l 0,11.129 C 5.926,-2.667 3.26,0 0,0"
           style="fill:#cee2f2;fill-opacity:1;fill-rule:nonzero;stroke:none"
           id="path13250"
           inkscape:connector-curvature="0" />
      </g>
      <g
         id="g13252"
         transform="matrix(0.9439659,0,0,-0.90818594,-748.60411,313.96552)">
        <path
           d="m 0,0 c 0,-3.26 -2.667,-5.928 -5.926,-5.928 l -20.645,0 c -3.259,0 -5.925,2.668 -5.925,5.928 l 0,11.129 c 0,3.259 2.666,5.926 5.925,5.926 l 20.645,0 C -2.667,17.055 0,14.388 0,11.129 L 0,0 Z m -4.389,20.072 -23.718,0 c -4.119,0 -7.484,-3.367 -7.484,-7.482 l 0,-14.053 c 0,-4.115 3.365,-7.482 7.484,-7.482 l 23.718,0 c 4.118,0 7.485,3.367 7.485,7.482 l 0,14.053 c 0,4.115 -3.367,7.482 -7.485,7.482"
           style="fill:#2a445e;fill-opacity:1;fill-rule:nonzero;stroke:none"
           id="path13254"
           inkscape:connector-curvature="0" />
      </g>
      <g
         id="g13256"
         transform="matrix(0.9439659,0,0,-0.90818594,-704.49212,313.96552)">
        <path
           d="m 0,0 c 0,-3.26 -2.666,-5.928 -5.926,-5.928 l -20.645,0 c -3.26,0 -5.926,2.668 -5.926,5.928 l 0,11.129 c 0,3.259 2.666,5.926 5.926,5.926 l 20.645,0 C -2.666,17.055 0,14.388 0,11.129 L 0,0 Z m -4.389,20.072 -23.719,0 c -4.116,0 -7.483,-3.367 -7.483,-7.482 l 0,-14.053 c 0,-4.115 3.367,-7.482 7.483,-7.482 l 23.719,0 c 4.118,0 7.483,3.367 7.483,7.482 l 0,14.053 c 0,4.115 -3.365,7.482 -7.483,7.482"
           style="fill:#2a445e;fill-opacity:1;fill-rule:nonzero;stroke:none"
           id="path13258"
           inkscape:connector-curvature="0" />
      </g>
    </g>
  </g>
</svg>
