<svg version="1.1" id="Capa_1" xmlns="http://www.w3.org/2000/svg" xmlns:xlink="http://www.w3.org/1999/xlink" x="0px" y="0px"
   viewBox="0 0 44 44" style="enable-background:new 0 0 44 44;" xml:space="preserve">
 <g>
  <title>Layer 1</title>
  <path fill="#2D3E59" id="svg_1" d="m23.40468,8.84496l4.88864,0c0.99894,0 1.81176,-0.63836 1.81176,-1.42289l0,-2.99918c0,-0.78453 -0.81282,-1.42289 -1.81176,-1.42289l-4.88864,0l-19.54202,0c-0.99894,0 -1.81177,0.63836 -1.81177,1.42289l0,2.99918c0,0.78453 0.81282,1.42289 1.81177,1.42289l10.4188,0l0,0.70898l-10.4188,0c-0.99894,0 -1.81177,0.63836 -1.81177,1.42289l0,2.99918c0,0.78453 0.81282,1.42289 1.81177,1.42289l10.4188,0l0,0.70885l-10.4188,0c-0.99894,0 -1.81177,0.63836 -1.81177,1.42289l0,2.99919c0,0.78453 0.81282,1.42288 1.81177,1.42288l10.4188,0l0,1.52106c-0.75287,0.2437 -1.37941,0.67936 -1.78146,1.22911l-9.61009,0c-0.45475,0 -0.82353,0.28949 -0.82353,0.64677l0,1.55224c0,0.35728 0.36878,0.64677 0.82353,0.64677l9.61009,0c0.63033,0.86214 1.81374,1.44449 3.16779,1.44449c1.35405,0 2.53746,-0.58235 3.16762,-1.44449l10.44614,0c0.45475,0 0.82353,-0.28949 0.82353,-0.64677l0,-1.55224c0,-0.35727 -0.36878,-0.64677 -0.82353,-0.64677l-10.44614,0c-0.38228,-0.52285 -0.96765,-0.94221 -1.6716,-1.1916l0,-1.55858l6.24087,0l4.88864,0c0.99894,0 1.81176,-0.63836 1.81176,-1.42288l0,-2.99919c0,-0.78453 -0.81282,-1.42289 -1.81176,-1.42289l-4.88864,0l-6.24087,0l0,-0.70885l6.24087,0l4.88864,0c0.99894,0 1.81176,-0.63836 1.81176,-1.42289l0,-2.99918c0,-0.78453 -0.81282,-1.42289 -1.81176,-1.42289l-4.88864,0l-6.24087,0l0,-0.70898l6.24087,0zm5.05334,-4.42207l0,2.99918c0,0.0714 -0.07395,0.12935 -0.16471,0.12935l-4.06511,0l0,-3.25789l4.06511,0c0.09075,0 0.16471,0.05795 0.16471,0.12935zm0,13.10775l0,2.99919c0,0.0714 -0.07395,0.12935 -0.16471,0.12935l-4.06511,0l0,-3.25789l4.06511,0c0.09075,0 0.16471,0.05795 0.16471,0.12935zm0,-6.55381l0,2.99918c0,0.0714 -0.07395,0.12935 -0.16471,0.12935l-4.06511,0l0,-3.25789l4.06511,0c0.09075,0 0.16471,0.05795 0.16471,0.12935z"/>
 </g>
</svg>