<svg version="1.1" id="Capa_1" xmlns="http://www.w3.org/2000/svg" xmlns:xlink="http://www.w3.org/1999/xlink" x="0px" y="0px"
   viewBox="0 0 44 44" style="enable-background:new 0 0 44 44;" xml:space="preserve">
 <g>
  <title>Layer 1</title>
  <path id="svg_17" fill="#2D3E59" d="m30.06148,15.06548c-0.04443,-0.38152 -0.50595,-0.66855 -0.905,-0.66855c-1.28971,0 -2.43429,-0.72993 -2.91431,-1.8597c-0.49,-1.1569 -0.17385,-2.50583 0.78704,-3.35587c0.30265,-0.26682 0.33952,-0.71362 0.08583,-1.02377c-0.66033,-0.80835 -1.41048,-1.53863 -2.22978,-2.1715c-0.32055,-0.24793 -0.79155,-0.21341 -1.06973,0.08347c-0.83889,0.89593 -2.34591,1.22885 -3.51047,0.76035c-1.21142,-0.49152 -1.97606,-1.67565 -1.90095,-2.94664c0.02471,-0.39948 -0.27818,-0.7466 -0.691,-0.79298c-1.05146,-0.1174 -2.11217,-0.1208 -3.16668,-0.00798c-0.40758,0.04343 -0.71022,0.38233 -0.69671,0.77678c0.04565,1.25855 -0.72764,2.42178 -1.92738,2.89568c-1.15055,0.45325 -2.64709,0.1228 -3.48429,-0.76527c-0.27671,-0.29253 -0.73944,-0.32845 -1.06218,-0.08581c-0.8434,0.63825 -1.61048,1.36902 -2.27688,2.1708c-0.25967,0.31168 -0.22133,0.7634 0.08387,1.03117c0.97987,0.85566 1.29578,2.21623 0.78704,3.38662c-0.48573,1.1158 -1.68718,1.83458 -3.06246,1.83458c-0.44631,-0.01385 -0.76392,0.27528 -0.81322,0.66667c-0.12369,1.0193 -0.12503,2.05845 -0.00598,3.0861c0.04444,0.38316 0.51958,0.66772 0.92303,0.66772c1.22591,-0.03005 2.40215,0.70128 2.89629,1.8596c0.49171,1.15688 0.17518,2.50523 -0.78729,3.35644c-0.30106,0.26684 -0.33953,0.71257 -0.08533,1.02237c0.65362,0.8033 1.40449,1.53407 2.22624,2.17233c0.32262,0.25052 0.7918,0.21542 1.07142,-0.08183c0.8422,-0.89805 2.34896,-1.23038 3.50878,-0.76093c1.21495,0.49022 1.97922,1.67423 1.9046,2.94558c-0.02447,0.39949 0.27915,0.74767 0.69051,0.79298c0.53809,0.06069 1.07898,0.09075 1.62156,0.09075c0.51496,0 1.03003,-0.02712 1.54511,-0.08241c0.40807,-0.04344 0.71024,-0.3827 0.69647,-0.77725c-0.04711,-1.25797 0.72787,-2.42132 1.92616,-2.89428c1.15822,-0.45619 2.64806,-0.12232 3.48575,0.76445c0.27818,0.29195 0.73811,0.3274 1.06218,0.08568c0.84195,-0.6366 1.60756,-1.36701 2.27689,-2.17091c0.25991,-0.31109 0.22302,-0.7634 -0.08389,-1.03164c-0.97964,-0.85508 -1.29725,-2.21623 -0.78849,-3.38544c0.47818,-1.10079 1.63495,-1.83989 2.87913,-1.83989l0.17409,0.00447c0.40393,0.03157 0.77511,-0.26835 0.82393,-0.66573c0.12429,-1.02025 0.12562,-2.05822 0.00608,-3.08622zm-13.98648,9.33144c-4.48158,0 -8.1144,-3.50307 -8.1144,-7.82449s3.63293,-7.82448 8.1144,-7.82448s8.1144,3.50307 8.1144,7.82448c0,1.4668 -0.4194,2.83877 -1.14776,4.01197l-3.55308,-3.4263c0.25723,-0.58485 0.39309,-1.21887 0.39296,-1.87322c0,-1.28133 -0.51751,-2.48588 -1.45722,-3.39178c-0.93946,-0.9059 -2.18862,-1.40483 -3.51717,-1.40483c-0.44338,0 -0.88468,0.05682 -1.31162,0.16893c-0.18699,0.04919 -0.33989,0.1978 -0.38969,0.37847c-0.05089,0.18477 0.00645,0.37413 0.1562,0.51863c0,0 1.75414,1.70452 2.34104,2.27035c0.06149,0.05928 0.06136,0.20074 0.05272,0.2517l-0.00549,0.0372c-0.05916,0.62218 -0.17323,1.36902 -0.26733,1.65604c-0.01267,0.01208 -0.0246,0.0223 -0.03751,0.03475c-0.01351,0.01303 -0.02593,0.02559 -0.03895,0.0385c-0.30156,0.09333 -1.08798,0.20461 -1.74343,0.2612l0.00012,-0.00341l-0.02946,0.00717c-0.00523,0.00058 -0.01498,0.00128 -0.02788,0.00128c-0.07086,0 -0.17506,-0.01913 -0.26977,-0.11033c-0.61089,-0.58907 -2.29625,-2.20262 -2.29625,-2.20262c-0.1512,-0.14533 -0.30629,-0.17585 -0.40965,-0.17585c-0.24091,0 -0.45664,0.16787 -0.52456,0.40864c-0.46395,1.65556 0.02787,3.43638 1.28386,4.64763c0.93971,0.90602 2.189,1.40494 3.51778,1.40494c0.67857,0 1.33609,-0.1309 1.94246,-0.37894l3.59167,3.4634c-1.26097,0.77807 -2.75835,1.23097 -4.3664,1.23097z"/>
 </g>
</svg>